<?xml version="1.0" encoding="utf-8"?>
<!-- Generator: Adobe Illustrator 15.1.0, SVG Export Plug-In . SVG Version: 6.00 Build 0)  -->
<!DOCTYPE svg PUBLIC "-//W3C//DTD SVG 1.1//EN" "http://www.w3.org/Graphics/SVG/1.1/DTD/svg11.dtd">
<svg version="1.1" id="svg2584" xmlns:svg="http://www.w3.org/2000/svg"
	 xmlns="http://www.w3.org/2000/svg" xmlns:xlink="http://www.w3.org/1999/xlink" x="0px" y="0px" width="200px" height="200px"
	 viewBox="0 0 200 200" enable-background="new 0 0 200 200" xml:space="preserve">
<g id="layer1" transform="translate(-313.03964,-301.79625)">
	<g id="g2554" transform="matrix(2.5585897,0,0,2.5585897,313.03964,301.79625)">
		<g id="g8" transform="translate(-2.73438e-2,-599.527)">
			<path id="path10" d="M46.578,652.856v-15.762h3.37v15.762H46.578z"/>
		</g>
		<g id="g12" transform="translate(-2.73438e-2,-599.527)">
			<path id="path14" d="M28.383,652.856v-15.762h3.263v15.762H28.383z"/>
		</g>
		<g id="g16" transform="translate(-2.73438e-2,-599.527)">
			<path id="path18" d="M32.769,652.856v-15.762h3.478v15.762H32.769z"/>
		</g>
		<g id="g20" transform="translate(-2.73438e-2,-599.527)">
			<path id="path22" d="M37.372,652.856v-15.762h3.479v15.762H37.372z"/>
		</g>
		<g id="g24" transform="translate(-2.73438e-2,-599.527)">
			<path id="path26" d="M45.454,637.094v15.762h-3.48v-15.762H45.454z"/>
		</g>
		<g id="g28" transform="translate(-2.73438e-2,-599.527)">
			<path id="path30" d="M48.501,635.979H29.756l9.62-5.813L48.501,635.979z"/>
		</g>
		<g id="g32" transform="translate(-2.73438e-2,-599.527)">
			<path id="path34" d="M27.598,635.979H19.57v-5.873h17.749L27.598,635.979z"/>
		</g>
		<g id="g36" transform="translate(-2.73438e-2,-599.527)">
			<path id="path38" d="M41.362,630.106h17.291v5.873h-8.076L41.362,630.106z"/>
		</g>
		<g id="g40" transform="translate(-2.73438e-2,-599.527)">
			<path id="path42" d="M56.18,628.994H22.044c3.342-5.922,9.733-9.925,17.068-9.925C46.444,619.069,52.835,623.072,56.18,628.994z"
				/>
		</g>
		<g id="g44" transform="translate(-2.73438e-2,-599.527)">
			<path id="path46" d="M25.138,651.925l-0.194,0.589l0.509-0.364l0.511,0.364l-0.196-0.589l0.511-0.364h-0.631l-0.194-0.587
				l-0.194,0.587h-0.629L25.138,651.925z M22.357,648.284l-0.196,0.589l0.509-0.363l0.511,0.363l-0.194-0.589l0.509-0.364h-0.629
				l-0.196-0.589l-0.194,0.589h-0.629L22.357,648.284z M20.443,643.84l-0.196,0.587l0.509-0.364l0.511,0.364l-0.194-0.587
				l0.509-0.365h-0.629l-0.196-0.587l-0.194,0.587h-0.629L20.443,643.84z M27.259,652.856h-7.69v-14.075l0.257,0.183l-0.196,0.589
				l0.509-0.365l0.511,0.365l-0.194-0.589l0.509-0.364h-0.629l-0.196-0.589l-0.194,0.589H19.57v-1.507h7.69V652.856z"/>
		</g>
		<g id="g48" transform="translate(-2.73438e-2,-599.527)">
			<path id="path50" d="M27.259,653.97v4.183h-7.69v-4.183H27.259z"/>
		</g>
		<g id="g52" transform="translate(-2.73438e-2,-599.527)">
			<path id="path54" d="M51.071,653.97h7.582v4.183h-7.582V653.97z"/>
		</g>
		<g id="g56" transform="translate(-2.73438e-2,-599.527)">
			<path id="path58" d="M44.329,656.949l0.511-0.364h-0.631l-0.194-0.589l-0.194,0.589h-0.629l0.509,0.364l-0.194,0.589l0.509-0.363
				l0.511,0.363L44.329,656.949z M48.834,655.166l0.511-0.364h-0.629l-0.194-0.589l-0.196,0.589h-0.629l0.509,0.364l-0.194,0.589
				l0.511-0.363l0.509,0.363L48.834,655.166z M33.894,656.949l-0.196,0.589l0.511-0.363l0.509,0.363l-0.194-0.589l0.509-0.364
				h-0.629l-0.194-0.589l-0.194,0.589h-0.631L33.894,656.949z M29.39,655.166l-0.196,0.589l0.509-0.363l0.511,0.363l-0.194-0.589
				l0.509-0.364h-0.629l-0.196-0.589l-0.194,0.589h-0.629L29.39,655.166z M49.947,653.97v4.183H39.63l-0.178-0.539l0.509-0.363
				h-0.629l-0.194-0.589l-0.196,0.589h-0.629l0.511,0.363l-0.18,0.539H28.383v-4.183H49.947z M39.578,658.153h-0.883l0.442-0.315
				L39.578,658.153z"/>
		</g>
		<g id="g60" transform="translate(-2.73438e-2,-599.527)">
			<path id="path62" d="M53.085,651.925l0.509-0.364h-0.629l-0.194-0.587l-0.195,0.587h-0.631l0.511,0.364l-0.194,0.589l0.509-0.364
				l0.509,0.364L53.085,651.925z M55.867,648.284l0.511-0.364h-0.629l-0.194-0.589l-0.196,0.589h-0.629l0.509,0.364l-0.194,0.589
				l0.511-0.363l0.509,0.363L55.867,648.284z M57.78,643.84l0.511-0.365h-0.629l-0.194-0.587l-0.196,0.587h-0.629l0.508,0.365
				l-0.194,0.587l0.511-0.364l0.509,0.364L57.78,643.84z M58.654,652.856h-7.582v-15.762h7.582v1.507h-0.376l-0.195-0.589
				l-0.196,0.589h-0.629l0.509,0.364l-0.195,0.589l0.511-0.365l0.509,0.365l-0.196-0.589l0.257-0.183V652.856z"/>
		</g>
	</g>
</g>
</svg>
